<mxfile host="app.diagrams.net" agent="Mozilla/5.0 (Windows NT 10.0; Win64; x64) AppleWebKit/537.36 (KHTML, like Gecko) Chrome/129.0.0.0 Safari/537.36" version="24.7.17">
  <diagram name="1 oldal" id="0HG7PGVHbc-jgx_Cyf4J">
    <mxGraphModel dx="1434" dy="728" grid="0" gridSize="10" guides="1" tooltips="1" connect="1" arrows="1" fold="1" page="1" pageScale="1" pageWidth="827" pageHeight="1169" math="0" shadow="0">
      <root>
        <mxCell id="0" />
        <mxCell id="1" parent="0" />
        <mxCell id="3P6uZzZan39xuhU4Ki90-17" value="" style="edgeStyle=orthogonalEdgeStyle;rounded=0;orthogonalLoop=1;jettySize=auto;html=1;" parent="1" source="3P6uZzZan39xuhU4Ki90-1" target="3P6uZzZan39xuhU4Ki90-2" edge="1">
          <mxGeometry relative="1" as="geometry" />
        </mxCell>
        <mxCell id="3P6uZzZan39xuhU4Ki90-1" value="START" style="ellipse;whiteSpace=wrap;html=1;" parent="1" vertex="1">
          <mxGeometry x="31" y="61" width="120" height="80" as="geometry" />
        </mxCell>
        <mxCell id="3P6uZzZan39xuhU4Ki90-16" value="" style="edgeStyle=orthogonalEdgeStyle;rounded=0;orthogonalLoop=1;jettySize=auto;html=1;" parent="1" source="3P6uZzZan39xuhU4Ki90-2" target="3P6uZzZan39xuhU4Ki90-3" edge="1">
          <mxGeometry relative="1" as="geometry" />
        </mxCell>
        <mxCell id="3P6uZzZan39xuhU4Ki90-2" value="Be: A[], B[], metszet[]" style="shape=parallelogram;perimeter=parallelogramPerimeter;whiteSpace=wrap;html=1;fixedSize=1;" parent="1" vertex="1">
          <mxGeometry x="194" y="63" width="147" height="76" as="geometry" />
        </mxCell>
        <mxCell id="3P6uZzZan39xuhU4Ki90-15" value="" style="edgeStyle=orthogonalEdgeStyle;rounded=0;orthogonalLoop=1;jettySize=auto;html=1;" parent="1" source="3P6uZzZan39xuhU4Ki90-3" target="3P6uZzZan39xuhU4Ki90-4" edge="1">
          <mxGeometry relative="1" as="geometry" />
        </mxCell>
        <mxCell id="3P6uZzZan39xuhU4Ki90-3" value="n = 0&lt;div&gt;m = 0&lt;/div&gt;" style="whiteSpace=wrap;html=1;aspect=fixed;" parent="1" vertex="1">
          <mxGeometry x="391" y="61" width="80" height="80" as="geometry" />
        </mxCell>
        <mxCell id="TQatSi6ZNSpFqD3Lwxh8-2" value="" style="edgeStyle=orthogonalEdgeStyle;rounded=0;orthogonalLoop=1;jettySize=auto;html=1;" parent="1" source="3P6uZzZan39xuhU4Ki90-4" target="TQatSi6ZNSpFqD3Lwxh8-1" edge="1">
          <mxGeometry relative="1" as="geometry" />
        </mxCell>
        <mxCell id="x2clrl0CDSWwA7y3fOAe-2" value="" style="edgeStyle=orthogonalEdgeStyle;rounded=0;orthogonalLoop=1;jettySize=auto;html=1;" parent="1" source="3P6uZzZan39xuhU4Ki90-4" target="x2clrl0CDSWwA7y3fOAe-1" edge="1">
          <mxGeometry relative="1" as="geometry" />
        </mxCell>
        <mxCell id="3P6uZzZan39xuhU4Ki90-4" value="n&amp;lt;A[]hossz" style="rhombus;whiteSpace=wrap;html=1;" parent="1" vertex="1">
          <mxGeometry x="391" y="190" width="80" height="80" as="geometry" />
        </mxCell>
        <mxCell id="3P6uZzZan39xuhU4Ki90-10" value="" style="edgeStyle=orthogonalEdgeStyle;rounded=0;orthogonalLoop=1;jettySize=auto;html=1;" parent="1" source="3P6uZzZan39xuhU4Ki90-5" target="3P6uZzZan39xuhU4Ki90-7" edge="1">
          <mxGeometry relative="1" as="geometry" />
        </mxCell>
        <mxCell id="3P6uZzZan39xuhU4Ki90-13" value="" style="edgeStyle=orthogonalEdgeStyle;rounded=0;orthogonalLoop=1;jettySize=auto;html=1;" parent="1" source="3P6uZzZan39xuhU4Ki90-5" target="3P6uZzZan39xuhU4Ki90-12" edge="1">
          <mxGeometry relative="1" as="geometry" />
        </mxCell>
        <mxCell id="3P6uZzZan39xuhU4Ki90-5" value="m&amp;lt;B[]hossz" style="rhombus;whiteSpace=wrap;html=1;" parent="1" vertex="1">
          <mxGeometry x="391" y="427" width="80" height="80" as="geometry" />
        </mxCell>
        <mxCell id="3P6uZzZan39xuhU4Ki90-11" value="" style="edgeStyle=orthogonalEdgeStyle;rounded=0;orthogonalLoop=1;jettySize=auto;html=1;" parent="1" source="3P6uZzZan39xuhU4Ki90-7" target="3P6uZzZan39xuhU4Ki90-8" edge="1">
          <mxGeometry relative="1" as="geometry" />
        </mxCell>
        <mxCell id="3P6uZzZan39xuhU4Ki90-19" value="" style="edgeStyle=orthogonalEdgeStyle;rounded=0;orthogonalLoop=1;jettySize=auto;html=1;" parent="1" source="3P6uZzZan39xuhU4Ki90-7" target="3P6uZzZan39xuhU4Ki90-18" edge="1">
          <mxGeometry relative="1" as="geometry" />
        </mxCell>
        <mxCell id="3P6uZzZan39xuhU4Ki90-7" value="A[n] == B[m]" style="rhombus;whiteSpace=wrap;html=1;" parent="1" vertex="1">
          <mxGeometry x="261" y="427" width="80" height="80" as="geometry" />
        </mxCell>
        <mxCell id="TQatSi6ZNSpFqD3Lwxh8-4" style="edgeStyle=orthogonalEdgeStyle;rounded=0;orthogonalLoop=1;jettySize=auto;html=1;entryX=0;entryY=0;entryDx=0;entryDy=0;" parent="1" source="3P6uZzZan39xuhU4Ki90-8" target="3P6uZzZan39xuhU4Ki90-5" edge="1">
          <mxGeometry relative="1" as="geometry" />
        </mxCell>
        <mxCell id="3P6uZzZan39xuhU4Ki90-8" value="&lt;div&gt;metszet.add(A[n])&lt;/div&gt;&lt;div&gt;&lt;span style=&quot;background-color: initial;&quot;&gt;m++&lt;/span&gt;&lt;br&gt;&lt;/div&gt;" style="rounded=0;whiteSpace=wrap;html=1;" parent="1" vertex="1">
          <mxGeometry x="241" y="344" width="120" height="60" as="geometry" />
        </mxCell>
        <mxCell id="3P6uZzZan39xuhU4Ki90-12" value="n++" style="rounded=0;whiteSpace=wrap;html=1;" parent="1" vertex="1">
          <mxGeometry x="635" y="310" width="120" height="60" as="geometry" />
        </mxCell>
        <mxCell id="3P6uZzZan39xuhU4Ki90-14" value="" style="endArrow=classic;html=1;rounded=0;exitX=0.25;exitY=0;exitDx=0;exitDy=0;entryX=1;entryY=1;entryDx=0;entryDy=0;" parent="1" source="3P6uZzZan39xuhU4Ki90-12" target="3P6uZzZan39xuhU4Ki90-4" edge="1">
          <mxGeometry width="50" height="50" relative="1" as="geometry">
            <mxPoint x="297" y="380" as="sourcePoint" />
            <mxPoint x="347" y="330" as="targetPoint" />
          </mxGeometry>
        </mxCell>
        <mxCell id="3P6uZzZan39xuhU4Ki90-18" value="m++" style="rounded=0;whiteSpace=wrap;html=1;" parent="1" vertex="1">
          <mxGeometry x="241" y="565" width="120" height="60" as="geometry" />
        </mxCell>
        <mxCell id="3P6uZzZan39xuhU4Ki90-20" value="" style="endArrow=classic;html=1;rounded=0;exitX=1;exitY=0;exitDx=0;exitDy=0;" parent="1" source="3P6uZzZan39xuhU4Ki90-18" target="3P6uZzZan39xuhU4Ki90-5" edge="1">
          <mxGeometry width="50" height="50" relative="1" as="geometry">
            <mxPoint x="296" y="507" as="sourcePoint" />
            <mxPoint x="346" y="457" as="targetPoint" />
          </mxGeometry>
        </mxCell>
        <mxCell id="3P6uZzZan39xuhU4Ki90-24" value="END" style="ellipse;whiteSpace=wrap;html=1;" parent="1" vertex="1">
          <mxGeometry x="675" y="184" width="120" height="80" as="geometry" />
        </mxCell>
        <mxCell id="ySNR9f4qq2AxFZ10hmAl-1" value="&lt;font style=&quot;font-size: 14px;&quot;&gt;I&lt;/font&gt;" style="text;html=1;align=center;verticalAlign=middle;whiteSpace=wrap;rounded=0;" parent="1" vertex="1">
          <mxGeometry x="380" y="252" width="59" height="35" as="geometry" />
        </mxCell>
        <mxCell id="ySNR9f4qq2AxFZ10hmAl-2" value="I" style="text;html=1;align=center;verticalAlign=middle;whiteSpace=wrap;rounded=0;" parent="1" vertex="1">
          <mxGeometry x="341" y="439" width="60" height="30" as="geometry" />
        </mxCell>
        <mxCell id="ySNR9f4qq2AxFZ10hmAl-3" value="I" style="text;html=1;align=center;verticalAlign=middle;whiteSpace=wrap;rounded=0;" parent="1" vertex="1">
          <mxGeometry x="255" y="404" width="60" height="30" as="geometry" />
        </mxCell>
        <mxCell id="ySNR9f4qq2AxFZ10hmAl-4" value="H" style="text;html=1;align=center;verticalAlign=middle;whiteSpace=wrap;rounded=0;" parent="1" vertex="1">
          <mxGeometry x="257" y="518" width="60" height="30" as="geometry" />
        </mxCell>
        <mxCell id="ySNR9f4qq2AxFZ10hmAl-5" value="H" style="text;html=1;align=center;verticalAlign=middle;whiteSpace=wrap;rounded=0;" parent="1" vertex="1">
          <mxGeometry x="449" y="465" width="60" height="30" as="geometry" />
        </mxCell>
        <mxCell id="TQatSi6ZNSpFqD3Lwxh8-3" value="" style="edgeStyle=orthogonalEdgeStyle;rounded=0;orthogonalLoop=1;jettySize=auto;html=1;entryX=0.5;entryY=0;entryDx=0;entryDy=0;" parent="1" source="TQatSi6ZNSpFqD3Lwxh8-1" target="3P6uZzZan39xuhU4Ki90-5" edge="1">
          <mxGeometry relative="1" as="geometry" />
        </mxCell>
        <mxCell id="TQatSi6ZNSpFqD3Lwxh8-1" value="m=0" style="rounded=0;whiteSpace=wrap;html=1;" parent="1" vertex="1">
          <mxGeometry x="371.5" y="284" width="119" height="60" as="geometry" />
        </mxCell>
        <mxCell id="x2clrl0CDSWwA7y3fOAe-3" value="" style="edgeStyle=orthogonalEdgeStyle;rounded=0;orthogonalLoop=1;jettySize=auto;html=1;" parent="1" source="x2clrl0CDSWwA7y3fOAe-1" target="3P6uZzZan39xuhU4Ki90-24" edge="1">
          <mxGeometry relative="1" as="geometry" />
        </mxCell>
        <mxCell id="x2clrl0CDSWwA7y3fOAe-1" value="Ki: metszet[]" style="rounded=0;whiteSpace=wrap;html=1;" parent="1" vertex="1">
          <mxGeometry x="515" y="194" width="120" height="60" as="geometry" />
        </mxCell>
        <mxCell id="YAaY0mX9YgVfm7dwaaf_-1" value="&lt;font style=&quot;font-size: 14px;&quot;&gt;H&lt;/font&gt;" style="text;html=1;align=center;verticalAlign=middle;whiteSpace=wrap;rounded=0;fontSize=16;" parent="1" vertex="1">
          <mxGeometry x="471" y="205" width="41" height="17" as="geometry" />
        </mxCell>
        <mxCell id="YAaY0mX9YgVfm7dwaaf_-2" style="edgeStyle=none;curved=1;rounded=0;orthogonalLoop=1;jettySize=auto;html=1;exitX=0.5;exitY=0;exitDx=0;exitDy=0;fontSize=12;startSize=8;endSize=8;" parent="1" source="ySNR9f4qq2AxFZ10hmAl-4" target="ySNR9f4qq2AxFZ10hmAl-4" edge="1">
          <mxGeometry relative="1" as="geometry" />
        </mxCell>
      </root>
    </mxGraphModel>
  </diagram>
</mxfile>
